<svg width="512" height="512" viewBox="0 0 512 512" xmlns="http://www.w3.org/2000/svg">
  <rect width="512" height="512" rx="96" fill="#0f172a"/>
  <circle cx="384" cy="128" r="68" fill="#38bdf8" opacity="0.18"/>
  <rect x="96" y="128" width="244" height="272" rx="24" fill="#f8fafc"/>
  <rect x="128" y="176" width="48" height="48" rx="8" fill="#0ea5e9"/>
  <rect x="202" y="176" width="48" height="48" rx="8" fill="#0ea5e9"/>
  <rect x="276" y="176" width="36" height="48" rx="8" fill="#0ea5e9"/>
  <rect x="128" y="248" width="48" height="48" rx="8" fill="#14b8a6"/>
  <rect x="202" y="248" width="48" height="48" rx="8" fill="#14b8a6"/>
  <rect x="276" y="248" width="36" height="48" rx="8" fill="#14b8a6"/>
  <rect x="190" y="328" width="58" height="72" rx="10" fill="#f97316"/>
  <path d="M82 400h276" stroke="#cbd5e1" stroke-width="18" stroke-linecap="round"/>
  <circle cx="356" cy="330" r="58" fill="#f97316"/>
  <path d="M396 370l44 44" stroke="#f97316" stroke-width="34" stroke-linecap="round"/>
  <circle cx="356" cy="330" r="30" fill="#fff7ed"/>
  <path d="M132 112h172" stroke="#38bdf8" stroke-width="20" stroke-linecap="round"/>
</svg>
